<svg xmlns:xlink="http://www.w3.org/1999/xlink" version="1.1" style="font-family:'lucida grande', 'lucida sans unicode', arial, helvetica, sans-serif;font-size:12px;" xmlns="http://www.w3.org/2000/svg" width="600" height="1000"><desc>Created with Highstock 2.1.5</desc><defs><clipPath id="highcharts-74"><rect x="0" y="0" width="556" height="903"></rect></clipPath></defs><rect x="0" y="0" width="600" height="1000" strokeWidth="0" fill="#FFFFFF" class=" highcharts-background"></rect><g class="highcharts-grid" ></g><g class="highcharts-grid" ></g><g class="highcharts-axis" ><path fill="none" d="M 34 948.5 L 590 948.5" stroke="#C0D0E0" stroke-width="1"  visibility="visible"></path></g><g class="highcharts-axis" ><text x="24"  text-anchor="middle" transform="translate(0,0) rotate(270 24 496.5)" class=" highcharts-yaxis-title" style="color:#707070;fill:#707070;" visibility="visible" y="496.5">Values</text></g><g class="highcharts-series-group" ><g class="highcharts-series" visibility="visible"  transform="translate(34,45) scale(1 1)" clip-path="url(#highcharts-74)"></g><g class="highcharts-markers" visibility="visible"  transform="translate(34,45) scale(1 1)" clip-path="none"></g><g class="highcharts-series" visibility="visible"  transform="translate(34,45) scale(1 1)" clip-path="url(#highcharts-74)"></g><g class="highcharts-markers" visibility="visible"  transform="translate(34,45) scale(1 1)" clip-path="none"></g><g class="highcharts-series" visibility="visible"  transform="translate(34,45) scale(1 1)" clip-path="url(#highcharts-74)"></g><g class="highcharts-markers" visibility="visible"  transform="translate(34,45) scale(1 1)" clip-path="none"></g><g class="highcharts-series" visibility="visible"  transform="translate(34,45) scale(1 1)" clip-path="url(#highcharts-74)"></g><g class="highcharts-markers" visibility="visible"  transform="translate(34,45) scale(1 1)" clip-path="none"></g><g class="highcharts-series" visibility="visible"  transform="translate(34,45) scale(1 1)" clip-path="url(#highcharts-74)"></g><g class="highcharts-markers" visibility="visible"  transform="translate(34,45) scale(1 1)" clip-path="none"></g><g class="highcharts-series" visibility="visible"  transform="translate(34,45) scale(1 1)" clip-path="url(#highcharts-74)"></g><g class="highcharts-markers" visibility="visible"  transform="translate(34,45) scale(1 1)" clip-path="none"></g><g class="highcharts-series" visibility="visible"  transform="translate(34,45) scale(1 1)" clip-path="url(#highcharts-74)"></g><g class="highcharts-markers" visibility="visible"  transform="translate(34,45) scale(1 1)" clip-path="none"></g></g><text x="300" text-anchor="middle" class="highcharts-title"  style="color:#333333;font-size:18px;fill:#333333;width:536px;" y="24"><tspan>Chest and thigh</tspan></text><g class="highcharts-legend"  transform="translate(115,960)"><g ><g><g class="highcharts-legend-item"  transform="translate(8,3)"><path fill="none" d="M 0 11 L 16 11" stroke="#7cb5ec" stroke-width="2"></path><path fill="#7cb5ec" d="M 8 7 C 13.328 7 13.328 15 8 15 C 2.6719999999999997 15 2.6719999999999997 7 8 7 Z"></path><text x="21" style="color:#333333;font-size:12px;font-weight:bold;cursor:pointer;fill:#333333;" text-anchor="start"  y="15"><tspan>Series 1</tspan></text></g><g class="highcharts-legend-item"  transform="translate(95.03125,3)"><path fill="none" d="M 0 11 L 16 11" stroke="#434348" stroke-width="2"></path><path fill="#434348" d="M 8 7 L 12 11 8 15 4 11 Z"></path><text x="21" y="15" style="color:#333333;font-size:12px;font-weight:bold;cursor:pointer;fill:#333333;" text-anchor="start" >1</text></g><g class="highcharts-legend-item"  transform="translate(142.703125,3)"><path fill="none" d="M 0 11 L 16 11" stroke="#90ed7d" stroke-width="2"></path><path fill="#90ed7d" d="M 4 7 L 12 7 12 15 4 15 Z"></path><text x="21" y="15" style="color:#333333;font-size:12px;font-weight:bold;cursor:pointer;fill:#333333;" text-anchor="start" >2</text></g><g class="highcharts-legend-item"  transform="translate(190.375,3)"><path fill="none" d="M 0 11 L 16 11" stroke="#f7a35c" stroke-width="2"></path><path fill="#f7a35c" d="M 8 7 L 12 15 4 15 Z"></path><text x="21" y="15" style="color:#333333;font-size:12px;font-weight:bold;cursor:pointer;fill:#333333;" text-anchor="start" >3</text></g><g class="highcharts-legend-item"  transform="translate(238.046875,3)"><path fill="none" d="M 0 11 L 16 11" stroke="#8085e9" stroke-width="2"></path><path fill="#8085e9" d="M 4 7 L 12 7 8 15 Z"></path><text x="21" y="15" style="color:#333333;font-size:12px;font-weight:bold;cursor:pointer;fill:#333333;" text-anchor="start" >4</text></g><g class="highcharts-legend-item"  transform="translate(285.71875,3)"><path fill="none" d="M 0 11 L 16 11" stroke="#f15c80" stroke-width="2"></path><path fill="#f15c80" d="M 8 7 C 13.328 7 13.328 15 8 15 C 2.6719999999999997 15 2.6719999999999997 7 8 7 Z"></path><text x="21" y="15" style="color:#333333;font-size:12px;font-weight:bold;cursor:pointer;fill:#333333;" text-anchor="start" >5</text></g><g class="highcharts-legend-item"  transform="translate(333.390625,3)"><path fill="none" d="M 0 11 L 16 11" stroke="#e4d354" stroke-width="2"></path><path fill="#e4d354" d="M 8 7 L 12 11 8 15 4 11 Z"></path><text x="21" y="15" style="color:#333333;font-size:12px;font-weight:bold;cursor:pointer;fill:#333333;" text-anchor="start" >6</text></g></g></g></g><g class="highcharts-axis-labels highcharts-xaxis-labels" ></g><g class="highcharts-axis-labels highcharts-yaxis-labels" ></g><g class="highcharts-tooltip"  style="cursor:default;padding:0;white-space:nowrap;" transform="translate(0,-9999)"><path fill="none" d="M 3 0 L 13 0 C 16 0 16 0 16 3 L 16 13 C 16 16 16 16 13 16 L 3 16 C 0 16 0 16 0 13 L 0 3 C 0 0 0 0 3 0"  stroke="black" stroke-opacity="0.049999999999999996" stroke-width="5" transform="translate(1, 1)"></path><path fill="none" d="M 3 0 L 13 0 C 16 0 16 0 16 3 L 16 13 C 16 16 16 16 13 16 L 3 16 C 0 16 0 16 0 13 L 0 3 C 0 0 0 0 3 0"  stroke="black" stroke-opacity="0.09999999999999999" stroke-width="3" transform="translate(1, 1)"></path><path fill="none" d="M 3 0 L 13 0 C 16 0 16 0 16 3 L 16 13 C 16 16 16 16 13 16 L 3 16 C 0 16 0 16 0 13 L 0 3 C 0 0 0 0 3 0"  stroke="black" stroke-opacity="0.15" stroke-width="1" transform="translate(1, 1)"></path><path fill="rgb(249, 249, 249)" fill-opacity=" .85" d="M 3 0 L 13 0 C 16 0 16 0 16 3 L 16 13 C 16 16 16 16 13 16 L 3 16 C 0 16 0 16 0 13 L 0 3 C 0 0 0 0 3 0"></path><text x="8"  style="font-size:12px;color:#333333;fill:#333333;" transform="translate(0,20)"></text></g><text x="590" text-anchor="end"  style="cursor:pointer;color:#909090;font-size:9px;fill:#909090;" y="995">Highcharts.com</text></svg>